<?xml version="1.0" encoding="UTF-8"?>
<!--!Font Awesome Free v7.1.0 by @fontawesome - https://fontawesome.com License - https://fontawesome.com/license/free Copyright 2025 Fonticons, Inc.-->
<svg xmlns="http://www.w3.org/2000/svg" viewBox="0 0 512 512" width="512" height="512" role="img" aria-label="Seedling favicon">
  <title>Seedling</title>
  <!-- Filled with light green -->
  <path fill="#54a230ff" d="M512 32C512 140.1 435.4 230.3 333.6 251.4 325.7 193.3 299.6 141 261.1 100.5 301.2 40 369.9 0 448 0l32 0c17.7 0 32 14.3 32 32zM0 96C0 78.3 14.3 64 32 64l32 0c123.7 0 224 100.3 224 224l0 192c0 17.7-14.3 32-32 32s-32-14.3-32-32l0-160C100.3 320 0 219.7 0 96z"/>
</svg>
